{
  "accessors": [
    {
      "bufferView": 2,
      "componentType": 5126,
      "count": 6144,
      "max": [
        0.087553970515728,
        1.6358402967453003,
        0.03282783180475235
      ],
      "min": [
        -0.087553970515728,
        1.540338158607483,
        -0.06026606261730194
      ],
      "type": "VEC3"
    },
    {
      "bufferView": 2,
      "byteOffset": 73728,
      "componentType": 5126,
      "count": 6144,
      "max": [
        0.9999372959136963,
        0.08822976052761078,
        0.47229352593421936
      ],
      "min": [
        -0.9999372959136963,
        -0.0807219073176384,
        -0.4760788381099701
      ],
      "type": "VEC3"
    },
    {
      "bufferView": 1,
      "componentType": 5126,
      "count": 6144,
      "max": [
        0.5001093149185181,
        0.9805780053138733
      ],
      "min": [
        0.03895322233438492,
        0.019421974197030067
      ],
      "type": "VEC2"
    },
    {
      "bufferView": 0,
      "componentType": 5125,
      "count": 9216,
      "type": "SCALAR"
    },
    {
      "bufferView": 2,
      "byteOffset": 147456,
      "componentType": 5126,
      "count": 6152,
      "max": [
        0.08833499997854233,
        1.6390751600265503,
        0.03941519930958748
      ],
      "min": [
        -0.08833499997854233,
        1.5328831672668457,
        -0.06685329973697662
      ],
      "type": "VEC3"
    },
    {
      "bufferView": 2,
      "byteOffset": 221280,
      "componentType": 5126,
      "count": 6152,
      "max": [
        0.9994454383850098,
        1.0,
        0.9913918972015381
      ],
      "min": [
        -0.9994454383850098,
        -1.0,
        -0.9914003014564514
      ],
      "type": "VEC3"
    },
    {
      "bufferView": 3,
      "componentType": 5126,
      "count": 6152,
      "max": [
        0.993533194065094,
        0.9999027848243713,
        0.9971453547477722,
        1.0
      ],
      "min": [
        -0.993533194065094,
        -0.9999032616615295,
        -0.9993358254432678,
        -1.0
      ],
      "type": "VEC4"
    },
    {
      "bufferView": 1,
      "byteOffset": 49152,
      "componentType": 5126,
      "count": 6152,
      "max": [
        0.013744864612817764,
        0.9978131651878357
      ],
      "min": [
        0.0021490443032234907,
        0.002186791505664587
      ],
      "type": "VEC2"
    },
    {
      "bufferView": 1,
      "byteOffset": 98368,
      "componentType": 5126,
      "count": 6152,
      "max": [
        0.013744864612817764,
        0.9978131651878357
      ],
      "min": [
        0.0021490443032234907,
        0.002186791505664587
      ],
      "type": "VEC2"
    },
    {
      "bufferView": 1,
      "byteOffset": 147584,
      "componentType": 5126,
      "count": 6152,
      "max": [
        0.013744864612817764,
        0.9978131651878357
      ],
      "min": [
        0.0021490443032234907,
        0.002186791505664587
      ],
      "type": "VEC2"
    },
    {
      "bufferView": 1,
      "byteOffset": 196800,
      "componentType": 5126,
      "count": 6152,
      "max": [
        0.013744864612817764,
        0.9978131651878357
      ],
      "min": [
        0.0021490443032234907,
        0.002186791505664587
      ],
      "type": "VEC2"
    },
    {
      "bufferView": 0,
      "byteOffset": 36864,
      "componentType": 5125,
      "count": 30720,
      "type": "SCALAR"
    }
  ],
  "asset": {
    "extras": {
      "author": "SupaRioAmateur (https://sketchfab.com/suparioamateur)",
      "license": "CC-BY-NC-SA-4.0 (http://creativecommons.org/licenses/by-nc-sa/4.0/)",
      "source": "https://sketchfab.com/3d-models/bimbo-thicc-earring-999f5c6501a5440e8bb68e9ae8c4c6d7",
      "title": "Bimbo Thicc Earring"
    },
    "generator": "Sketchfab-12.68.0",
    "version": "2.0"
  },
  "bufferViews": [
    {
      "buffer": 0,
      "byteLength": 159744,
      "name": "floatBufferViews",
      "target": 34963
    },
    {
      "buffer": 0,
      "byteLength": 246016,
      "byteOffset": 159744,
      "byteStride": 8,
      "name": "floatBufferViews",
      "target": 34962
    },
    {
      "buffer": 0,
      "byteLength": 295104,
      "byteOffset": 405760,
      "byteStride": 12,
      "name": "floatBufferViews",
      "target": 34962
    },
    {
      "buffer": 0,
      "byteLength": 98432,
      "byteOffset": 700864,
      "byteStride": 16,
      "name": "floatBufferViews",
      "target": 34962
    }
  ],
  "buffers": [
    {
      "byteLength": 799296,
      "uri": "scene.bin"
    }
  ],
  "images": [
    {
      "uri": "textures/Gold_Insulator_baseColor.jpeg"
    },
    {
      "uri": "textures/Gold_Insulator_metallicRoughness.png"
    },
    {
      "uri": "textures/Gold_Insulator_normal.jpeg"
    }
  ],
  "materials": [
    {
      "alphaMode": "BLEND",
      "doubleSided": true,
      "name": "Center",
      "pbrMetallicRoughness": {
        "baseColorFactor": [
          0.8,
          0.8,
          0.8,
          0.0
        ],
        "metallicFactor": 0.0,
        "roughnessFactor": 0.5
      }
    },
    {
      "doubleSided": true,
      "name": "Gold_Insulator",
      "normalTexture": {
        "index": 2,
        "scale": 0.4
      },
      "pbrMetallicRoughness": {
        "baseColorTexture": {
          "index": 0
        },
        "metallicFactor": 0.699,
        "metallicRoughnessTexture": {
          "index": 1
        },
        "roughnessFactor": 0.4
      }
    }
  ],
  "meshes": [
    {
      "name": "Object_0",
      "primitives": [
        {
          "attributes": {
            "NORMAL": 1,
            "POSITION": 0,
            "TEXCOORD_0": 2
          },
          "indices": 3,
          "material": 0,
          "mode": 4
        }
      ]
    },
    {
      "name": "Object_1",
      "primitives": [
        {
          "attributes": {
            "NORMAL": 5,
            "POSITION": 4,
            "TANGENT": 6,
            "TEXCOORD_0": 7,
            "TEXCOORD_1": 8,
            "TEXCOORD_2": 9,
            "TEXCOORD_3": 10
          },
          "indices": 11,
          "material": 1,
          "mode": 4
        }
      ]
    }
  ],
  "nodes": [
    {
      "children": [
        1
      ],
      "matrix": [
        1.0,
        0.0,
        0.0,
        0.0,
        0.0,
        2.220446049250313e-16,
        -1.0,
        0.0,
        0.0,
        1.0,
        2.220446049250313e-16,
        0.0,
        0.0,
        0.0,
        0.0,
        1.0
      ],
      "name": "Sketchfab_model"
    },
    {
      "children": [
        2
      ],
      "name": "root"
    },
    {
      "children": [
        3
      ],
      "matrix": [
        1.0,
        0.0,
        0.0,
        0.0,
        0.0,
        2.220446049250313e-16,
        1.0,
        0.0,
        0.0,
        -1.0,
        2.220446049250313e-16,
        0.0,
        0.0,
        0.0,
        0.0,
        1.0
      ],
      "name": "GLTF_SceneRootNode"
    },
    {
      "children": [
        4,
        5
      ],
      "name": "SuperToroidG2FThiccLsketchfab_0"
    },
    {
      "mesh": 0,
      "name": "Object_4"
    },
    {
      "mesh": 1,
      "name": "Object_5"
    }
  ],
  "samplers": [
    {
      "magFilter": 9729,
      "minFilter": 9987,
      "wrapS": 10497,
      "wrapT": 10497
    }
  ],
  "scene": 0,
  "scenes": [
    {
      "name": "Sketchfab_Scene",
      "nodes": [
        0
      ]
    }
  ],
  "textures": [
    {
      "sampler": 0,
      "source": 0
    },
    {
      "sampler": 0,
      "source": 1
    },
    {
      "sampler": 0,
      "source": 2
    }
  ]
}
