{
  "accessors": [
    {
      "bufferView": 2,
      "componentType": 5126,
      "count": 145,
      "max": [
        0.006456410977989435,
        -0.00501667894423008,
        0.0528702512383461
      ],
      "min": [
        -0.0015435890527442098,
        -0.020016679540276527,
        0.044870249927043915
      ],
      "type": "VEC3"
    },
    {
      "bufferView": 2,
      "byteOffset": 1740,
      "componentType": 5126,
      "count": 145,
      "max": [
        1.0,
        1.0,
        1.0
      ],
      "min": [
        -1.0,
        -0.5773502588272095,
        -1.0
      ],
      "type": "VEC3"
    },
    {
      "bufferView": 1,
      "componentType": 5126,
      "count": 145,
      "max": [
        1.0,
        1.0
      ],
      "min": [
        0.0,
        0.2333333045244217
      ],
      "type": "VEC2"
    },
    {
      "bufferView": 0,
      "componentType": 5125,
      "count": 408,
      "type": "SCALAR"
    },
    {
      "bufferView": 2,
      "byteOffset": 3480,
      "componentType": 5126,
      "count": 192,
      "max": [
        0.00477463286370039,
        -0.014996680431067944,
        0.006868225056678057
      ],
      "min": [
        0.00013818869774695486,
        -0.016016680747270584,
        0.0022317799739539623
      ],
      "type": "VEC3"
    },
    {
      "bufferView": 2,
      "byteOffset": 5784,
      "componentType": 5126,
      "count": 192,
      "max": [
        1.0,
        0.8513320088386536,
        1.0
      ],
      "min": [
        -1.0,
        -1.0,
        -1.0
      ],
      "type": "VEC3"
    },
    {
      "bufferView": 1,
      "byteOffset": 1160,
      "componentType": 5126,
      "count": 192,
      "max": [
        1.0,
        1.0
      ],
      "min": [
        0.0,
        0.0
      ],
      "type": "VEC2"
    },
    {
      "bufferView": 0,
      "byteOffset": 1632,
      "componentType": 5125,
      "count": 210,
      "type": "SCALAR"
    },
    {
      "bufferView": 2,
      "byteOffset": 8088,
      "componentType": 5126,
      "count": 16843,
      "max": [
        0.007544960826635361,
        -0.005910058971494436,
        0.05315310135483742
      ],
      "min": [
        -0.0026321399491280317,
        -0.016754580661654472,
        0.0003000014112330973
      ],
      "type": "VEC3"
    },
    {
      "bufferView": 2,
      "byteOffset": 210204,
      "componentType": 5126,
      "count": 16843,
      "max": [
        1.0,
        1.0,
        1.0
      ],
      "min": [
        -1.0,
        -1.0,
        -1.0
      ],
      "type": "VEC3"
    },
    {
      "bufferView": 1,
      "byteOffset": 2696,
      "componentType": 5126,
      "count": 16843,
      "max": [
        1.0,
        0.9990463256835938
      ],
      "min": [
        0.0,
        0.0
      ],
      "type": "VEC2"
    },
    {
      "bufferView": 0,
      "byteOffset": 2472,
      "componentType": 5125,
      "count": 85848,
      "type": "SCALAR"
    },
    {
      "bufferView": 2,
      "byteOffset": 412320,
      "componentType": 5126,
      "count": 471,
      "max": [
        0.007544960826635361,
        -0.014278779737651348,
        0.0379406213760376
      ],
      "min": [
        -0.0026321399491280317,
        -0.016754580661654472,
        0.0003000014112330973
      ],
      "type": "VEC3"
    },
    {
      "bufferView": 2,
      "byteOffset": 417972,
      "componentType": 5126,
      "count": 471,
      "max": [
        0.9999336004257202,
        1.0,
        0.992388129234314
      ],
      "min": [
        -0.9999336004257202,
        -1.0,
        -0.9997099041938782
      ],
      "type": "VEC3"
    },
    {
      "bufferView": 1,
      "byteOffset": 137440,
      "componentType": 5126,
      "count": 471,
      "max": [
        0.634998619556427,
        1.0
      ],
      "min": [
        0.3650014102458954,
        0.03417098894715309
      ],
      "type": "VEC2"
    },
    {
      "bufferView": 0,
      "byteOffset": 345864,
      "componentType": 5125,
      "count": 1470,
      "type": "SCALAR"
    },
    {
      "bufferView": 2,
      "byteOffset": 423624,
      "componentType": 5126,
      "count": 263,
      "max": [
        0.006739254109561443,
        -0.006155048962682486,
        0.05315310135483742
      ],
      "min": [
        -0.0018264319514855742,
        -0.016016680747270584,
        0.04458741098642349
      ],
      "type": "VEC3"
    },
    {
      "bufferView": 2,
      "byteOffset": 426780,
      "componentType": 5126,
      "count": 263,
      "max": [
        0.7071068286895752,
        1.0,
        1.0
      ],
      "min": [
        -0.7071068286895752,
        -1.0,
        -1.0
      ],
      "type": "VEC3"
    },
    {
      "bufferView": 1,
      "byteOffset": 141208,
      "componentType": 5126,
      "count": 263,
      "max": [
        0.9342936277389526,
        0.9302853941917419
      ],
      "min": [
        0.06570637226104736,
        0.011481169611215591
      ],
      "type": "VEC2"
    },
    {
      "bufferView": 0,
      "byteOffset": 351744,
      "componentType": 5125,
      "count": 756,
      "type": "SCALAR"
    }
  ],
  "asset": {
    "extras": {
      "author": "David_Boc (https://sketchfab.com/David_Boc)",
      "license": "CC-BY-4.0 (http://creativecommons.org/licenses/by/4.0/)",
      "source": "https://sketchfab.com/3d-models/louboutin-earring-36e269a8f74143a3b567f582781acaa2",
      "title": "Louboutin Earring"
    },
    "generator": "Sketchfab-12.68.0",
    "version": "2.0"
  },
  "bufferViews": [
    {
      "buffer": 0,
      "byteLength": 354768,
      "name": "floatBufferViews",
      "target": 34963
    },
    {
      "buffer": 0,
      "byteLength": 143312,
      "byteOffset": 354768,
      "byteStride": 8,
      "name": "floatBufferViews",
      "target": 34962
    },
    {
      "buffer": 0,
      "byteLength": 429936,
      "byteOffset": 498080,
      "byteStride": 12,
      "name": "floatBufferViews",
      "target": 34962
    }
  ],
  "buffers": [
    {
      "byteLength": 928016,
      "uri": "scene.bin"
    }
  ],
  "images": [
    {
      "uri": "textures/black_high_gloss_plastic_baseColor.jpeg"
    },
    {
      "uri": "textures/blue_high_gloss_plastic_baseColor.jpeg"
    },
    {
      "uri": "textures/blue_high_gloss_plastic_emissive.jpeg"
    }
  ],
  "materials": [
    {
      "doubleSided": true,
      "name": "black_high_gloss_plastic",
      "pbrMetallicRoughness": {
        "baseColorTexture": {
          "index": 0
        },
        "metallicFactor": 0.0,
        "roughnessFactor": 0.6
      }
    },
    {
      "alphaMode": "BLEND",
      "doubleSided": true,
      "emissiveTexture": {
        "index": 2
      },
      "name": "blue_high_gloss_plastic",
      "pbrMetallicRoughness": {
        "baseColorFactor": [
          1.0,
          1.0,
          1.0,
          0.95
        ],
        "baseColorTexture": {
          "index": 1
        },
        "metallicFactor": 0.0,
        "roughnessFactor": 0.6
      }
    },
    {
      "doubleSided": true,
      "name": "color",
      "pbrMetallicRoughness": {
        "baseColorTexture": {
          "index": 0
        },
        "metallicFactor": 0.0,
        "roughnessFactor": 0.6
      }
    },
    {
      "doubleSided": true,
      "name": "red_high_gloss_plastic",
      "pbrMetallicRoughness": {
        "baseColorTexture": {
          "index": 0
        },
        "metallicFactor": 0.0,
        "roughnessFactor": 0.6
      }
    },
    {
      "doubleSided": true,
      "name": "yellow_high_gloss_plastic",
      "pbrMetallicRoughness": {
        "baseColorTexture": {
          "index": 1
        },
        "metallicFactor": 0.0,
        "roughnessFactor": 0.6
      }
    }
  ],
  "meshes": [
    {
      "name": "Object_0",
      "primitives": [
        {
          "attributes": {
            "NORMAL": 1,
            "POSITION": 0,
            "TEXCOORD_0": 2
          },
          "indices": 3,
          "material": 0,
          "mode": 4
        }
      ]
    },
    {
      "name": "Object_1",
      "primitives": [
        {
          "attributes": {
            "NORMAL": 5,
            "POSITION": 4,
            "TEXCOORD_0": 6
          },
          "indices": 7,
          "material": 1,
          "mode": 4
        }
      ]
    },
    {
      "name": "Object_2",
      "primitives": [
        {
          "attributes": {
            "NORMAL": 9,
            "POSITION": 8,
            "TEXCOORD_0": 10
          },
          "indices": 11,
          "material": 2,
          "mode": 4
        }
      ]
    },
    {
      "name": "Object_3",
      "primitives": [
        {
          "attributes": {
            "NORMAL": 13,
            "POSITION": 12,
            "TEXCOORD_0": 14
          },
          "indices": 15,
          "material": 3,
          "mode": 4
        }
      ]
    },
    {
      "name": "Object_4",
      "primitives": [
        {
          "attributes": {
            "NORMAL": 17,
            "POSITION": 16,
            "TEXCOORD_0": 18
          },
          "indices": 19,
          "material": 4,
          "mode": 4
        }
      ]
    }
  ],
  "nodes": [
    {
      "children": [
        1
      ],
      "matrix": [
        1.0,
        0.0,
        0.0,
        0.0,
        0.0,
        2.220446049250313e-16,
        -1.0,
        0.0,
        0.0,
        1.0,
        2.220446049250313e-16,
        0.0,
        0.0,
        0.0,
        0.0,
        1.0
      ],
      "name": "Sketchfab_model"
    },
    {
      "children": [
        2,
        3,
        4,
        5,
        6
      ],
      "name": "earring v2.obj.cleaner.materialmerger.gles"
    },
    {
      "mesh": 0,
      "name": "Object_2"
    },
    {
      "mesh": 1,
      "name": "Object_3"
    },
    {
      "mesh": 2,
      "name": "Object_4"
    },
    {
      "mesh": 3,
      "name": "Object_5"
    },
    {
      "mesh": 4,
      "name": "Object_6"
    }
  ],
  "samplers": [
    {
      "magFilter": 9729,
      "minFilter": 9987,
      "wrapS": 10497,
      "wrapT": 10497
    }
  ],
  "scene": 0,
  "scenes": [
    {
      "name": "Sketchfab_Scene",
      "nodes": [
        0
      ]
    }
  ],
  "textures": [
    {
      "sampler": 0,
      "source": 0
    },
    {
      "sampler": 0,
      "source": 1
    },
    {
      "sampler": 0,
      "source": 2
    }
  ]
}
