{
  "accessors": [
    {
      "bufferView": 2,
      "componentType": 5126,
      "count": 459,
      "max": [
        182.65240478515625,
        179.87750244140625,
        347.9670104980469
      ],
      "min": [
        -182.65237426757813,
        -179.87753295898438,
        -12.163256645202637
      ],
      "type": "VEC3"
    },
    {
      "bufferView": 2,
      "byteOffset": 5508,
      "componentType": 5126,
      "count": 459,
      "max": [
        1.0,
        0.9848078489303589,
        1.0
      ],
      "min": [
        -1.0,
        -0.9848079085350037,
        -0.8670801520347595
      ],
      "type": "VEC3"
    },
    {
      "bufferView": 3,
      "componentType": 5126,
      "count": 459,
      "max": [
        0.7227107882499695,
        0.8548547625541687,
        0.9992190599441528,
        1.0
      ],
      "min": [
        -0.8453280925750732,
        -1.0,
        -1.0,
        -1.0
      ],
      "type": "VEC4"
    },
    {
      "bufferView": 1,
      "componentType": 5126,
      "count": 459,
      "max": [
        0.9924038648605347,
        1.0
      ],
      "min": [
        0.0005000000237487257,
        0.0
      ],
      "type": "VEC2"
    },
    {
      "bufferView": 0,
      "componentType": 5125,
      "count": 1398,
      "type": "SCALAR"
    },
    {
      "bufferView": 2,
      "byteOffset": 11016,
      "componentType": 5126,
      "count": 108,
      "max": [
        103.90065002441406,
        102.32218170166016,
        102.66918182373047
      ],
      "min": [
        -103.9006576538086,
        -102.32217407226563,
        27.373062133789063
      ],
      "type": "VEC3"
    },
    {
      "bufferView": 2,
      "byteOffset": 12312,
      "componentType": 5126,
      "count": 108,
      "max": [
        0.9958926439285278,
        0.980762779712677,
        0.9929603934288025
      ],
      "min": [
        -0.9958926439285278,
        -0.980762779712677,
        -0.09054333716630936
      ],
      "type": "VEC3"
    },
    {
      "bufferView": 3,
      "byteOffset": 7344,
      "componentType": 5126,
      "count": 108,
      "max": [
        0.7878033518791199,
        0.07943613082170486,
        0.9943710565567017,
        1.0
      ],
      "min": [
        -0.8512663841247559,
        -0.999608039855957,
        -0.9943709969520569,
        1.0
      ],
      "type": "VEC4"
    },
    {
      "bufferView": 1,
      "byteOffset": 3672,
      "componentType": 5126,
      "count": 108,
      "max": [
        0.9924038648605347,
        1.0
      ],
      "min": [
        0.007596105337142944,
        0.0
      ],
      "type": "VEC2"
    },
    {
      "bufferView": 0,
      "byteOffset": 5592,
      "componentType": 5125,
      "count": 324,
      "type": "SCALAR"
    },
    {
      "bufferView": 2,
      "byteOffset": 13608,
      "componentType": 5126,
      "count": 1508,
      "max": [
        98.72013092041016,
        94.73104858398438,
        93.09521484375
      ],
      "min": [
        -98.72014617919922,
        -100.00709533691406,
        59.52728271484375
      ],
      "type": "VEC3"
    },
    {
      "bufferView": 2,
      "byteOffset": 31704,
      "componentType": 5126,
      "count": 1508,
      "max": [
        0.9985598921775818,
        0.9924615025520325,
        0.70536869764328
      ],
      "min": [
        -0.998559832572937,
        -0.9924615025520325,
        -0.7053687572479248
      ],
      "type": "VEC3"
    },
    {
      "bufferView": 1,
      "byteOffset": 4536,
      "componentType": 5126,
      "count": 1508,
      "max": [
        1.0,
        1.0
      ],
      "min": [
        0.0,
        0.0
      ],
      "type": "VEC2"
    },
    {
      "bufferView": 0,
      "byteOffset": 6888,
      "componentType": 5125,
      "count": 1944,
      "type": "SCALAR"
    },
    {
      "bufferView": 2,
      "byteOffset": 49800,
      "componentType": 5126,
      "count": 108,
      "max": [
        96.6181869506836,
        92.45206451416016,
        84.64442443847656
      ],
      "min": [
        -96.61819458007813,
        -97.9936294555664,
        70.54561614990234
      ],
      "type": "VEC3"
    },
    {
      "bufferView": 2,
      "byteOffset": 51096,
      "componentType": 5126,
      "count": 108,
      "max": [
        0.976362943649292,
        0.9316349625587463,
        0.13069914281368256
      ],
      "min": [
        -0.9763620495796204,
        -0.9914231300354004,
        0.13068674504756927
      ],
      "type": "VEC3"
    },
    {
      "bufferView": 1,
      "byteOffset": 16600,
      "componentType": 5126,
      "count": 108,
      "max": [
        1.0,
        1.0
      ],
      "min": [
        0.0,
        0.0
      ],
      "type": "VEC2"
    },
    {
      "bufferView": 0,
      "byteOffset": 14664,
      "componentType": 5125,
      "count": 270,
      "type": "SCALAR"
    }
  ],
  "asset": {
    "extras": {
      "author": "Anthony Yanez (https://sketchfab.com/paulyanez)",
      "license": "CC-BY-4.0 (http://creativecommons.org/licenses/by/4.0/)",
      "source": "https://sketchfab.com/3d-models/low-poly-cowboy-hat-16c504d81f5843c3985d7f208c27b79a",
      "title": "Low Poly Cowboy Hat"
    },
    "generator": "Sketchfab-12.66.0",
    "version": "2.0"
  },
  "bufferViews": [
    {
      "buffer": 0,
      "byteLength": 15744,
      "name": "floatBufferViews",
      "target": 34963
    },
    {
      "buffer": 0,
      "byteLength": 17464,
      "byteOffset": 15744,
      "byteStride": 8,
      "name": "floatBufferViews",
      "target": 34962
    },
    {
      "buffer": 0,
      "byteLength": 52392,
      "byteOffset": 33208,
      "byteStride": 12,
      "name": "floatBufferViews",
      "target": 34962
    },
    {
      "buffer": 0,
      "byteLength": 9072,
      "byteOffset": 85600,
      "byteStride": 16,
      "name": "floatBufferViews",
      "target": 34962
    }
  ],
  "buffers": [
    {
      "byteLength": 94672,
      "uri": "scene.bin"
    }
  ],
  "images": [
    {
      "uri": "textures/02_-_Default_baseColor.jpeg"
    },
    {
      "uri": "textures/02_-_Default_normal.png"
    },
    {
      "uri": "textures/03_-_Default_baseColor.jpeg"
    },
    {
      "uri": "textures/03_-_Default_normal.png"
    },
    {
      "uri": "textures/07_-_Default_baseColor.jpeg"
    }
  ],
  "materials": [
    {
      "doubleSided": true,
      "name": "02_-_Default",
      "normalTexture": {
        "index": 1
      },
      "pbrMetallicRoughness": {
        "baseColorTexture": {
          "index": 0
        },
        "roughnessFactor": 0.6751143292682926
      }
    },
    {
      "doubleSided": true,
      "name": "03_-_Default",
      "normalTexture": {
        "index": 3
      },
      "pbrMetallicRoughness": {
        "baseColorTexture": {
          "index": 2
        },
        "roughnessFactor": 0.8929713596
      }
    },
    {
      "doubleSided": true,
      "name": "07_-_Default",
      "pbrMetallicRoughness": {
        "baseColorTexture": {
          "index": 4
        },
        "roughnessFactor": 0.42511432926829273
      }
    },
    {
      "doubleSided": true,
      "name": "08_-_Default",
      "pbrMetallicRoughness": {
        "baseColorFactor": [
          0.0,
          0.0,
          0.0,
          1.0
        ],
        "roughnessFactor": 0.8929713596
      }
    }
  ],
  "meshes": [
    {
      "name": "Hat_02 - Default_0",
      "primitives": [
        {
          "attributes": {
            "NORMAL": 1,
            "POSITION": 0,
            "TANGENT": 2,
            "TEXCOORD_0": 3
          },
          "indices": 4,
          "material": 0,
          "mode": 4
        }
      ]
    },
    {
      "name": "Hat_03 - Default_0",
      "primitives": [
        {
          "attributes": {
            "NORMAL": 6,
            "POSITION": 5,
            "TANGENT": 7,
            "TEXCOORD_0": 8
          },
          "indices": 9,
          "material": 1,
          "mode": 4
        }
      ]
    },
    {
      "name": "Hat_07 - Default_0",
      "primitives": [
        {
          "attributes": {
            "NORMAL": 11,
            "POSITION": 10,
            "TEXCOORD_0": 12
          },
          "indices": 13,
          "material": 2,
          "mode": 4
        }
      ]
    },
    {
      "name": "Hat_08 - Default_0",
      "primitives": [
        {
          "attributes": {
            "NORMAL": 15,
            "POSITION": 14,
            "TEXCOORD_0": 16
          },
          "indices": 17,
          "material": 3,
          "mode": 4
        }
      ]
    }
  ],
  "nodes": [
    {
      "children": [
        1
      ],
      "matrix": [
        1.0,
        0.0,
        0.0,
        0.0,
        0.0,
        2.220446049250313e-16,
        -1.0,
        0.0,
        0.0,
        1.0,
        2.220446049250313e-16,
        0.0,
        0.0,
        0.0,
        0.0,
        1.0
      ],
      "name": "Sketchfab_model"
    },
    {
      "children": [
        2
      ],
      "matrix": [
        1.0,
        0.0,
        0.0,
        0.0,
        0.0,
        0.0,
        1.0,
        0.0,
        0.0,
        -1.0,
        0.0,
        0.0,
        0.0,
        0.0,
        0.0,
        1.0
      ],
      "name": "Cowboy Hat.FBX"
    },
    {
      "children": [
        3
      ],
      "name": "RootNode"
    },
    {
      "children": [
        4,
        5,
        6,
        7
      ],
      "matrix": [
        1.8127000331878662,
        0.0,
        0.0,
        0.0,
        0.0,
        4.025002627167909e-16,
        -1.8127000331878662,
        0.0,
        0.0,
        0.656536340713501,
        1.4578035239265507e-16,
        0.0,
        -6.622516632080078,
        85.1549301147461,
        3.741010232261033e-06,
        1.0
      ],
      "name": "Hat"
    },
    {
      "mesh": 0,
      "name": "Hat_02 - Default_0"
    },
    {
      "mesh": 1,
      "name": "Hat_03 - Default_0"
    },
    {
      "mesh": 2,
      "name": "Hat_07 - Default_0"
    },
    {
      "mesh": 3,
      "name": "Hat_08 - Default_0"
    }
  ],
  "samplers": [
    {
      "magFilter": 9729,
      "minFilter": 9987,
      "wrapS": 10497,
      "wrapT": 10497
    }
  ],
  "scene": 0,
  "scenes": [
    {
      "name": "Sketchfab_Scene",
      "nodes": [
        0
      ]
    }
  ],
  "textures": [
    {
      "sampler": 0,
      "source": 0
    },
    {
      "sampler": 0,
      "source": 1
    },
    {
      "sampler": 0,
      "source": 2
    },
    {
      "sampler": 0,
      "source": 3
    },
    {
      "sampler": 0,
      "source": 4
    }
  ]
}
