{
  "accessors": [
    {
      "bufferView": 2,
      "componentType": 5126,
      "count": 6,
      "max": [
        -11.512689590454102,
        24.666309356689453,
        -12.371009826660156
      ],
      "min": [
        -97.10997772216797,
        1.2568299770355225,
        -136.52313232421875
      ],
      "type": "VEC3"
    },
    {
      "bufferView": 2,
      "byteOffset": 72,
      "componentType": 5126,
      "count": 6,
      "max": [
        0.2215605080127716,
        -0.9620049595832825,
        0.18844901025295258
      ],
      "min": [
        -0.19756895303726196,
        -0.9740822315216064,
        -0.04555010423064232
      ],
      "type": "VEC3"
    },
    {
      "bufferView": 1,
      "componentType": 5126,
      "count": 6,
      "max": [
        0.5909000039100647,
        0.216279998421669
      ],
      "min": [
        0.4507000148296356,
        0.009940000250935555
      ],
      "type": "VEC2"
    },
    {
      "bufferView": 0,
      "componentType": 5125,
      "count": 6,
      "type": "SCALAR"
    },
    {
      "bufferView": 2,
      "byteOffset": 144,
      "componentType": 5126,
      "count": 8,
      "max": [
        135.42835998535156,
        12.129240036010742,
        -22.65715980529785
      ],
      "min": [
        96.94840240478516,
        -4.604450225830078,
        -85.84776306152344
      ],
      "type": "VEC3"
    },
    {
      "bufferView": 2,
      "byteOffset": 240,
      "componentType": 5126,
      "count": 8,
      "max": [
        -0.01257001981139183,
        -0.8752073645591736,
        0.4588286280632019
      ],
      "min": [
        -0.1532595306634903,
        -0.9992115497589111,
        0.037660058587789536
      ],
      "type": "VEC3"
    },
    {
      "bufferView": 1,
      "byteOffset": 48,
      "componentType": 5126,
      "count": 8,
      "max": [
        0.7450199723243713,
        0.6897100210189819
      ],
      "min": [
        0.6960200071334839,
        0.5653899908065796
      ],
      "type": "VEC2"
    },
    {
      "bufferView": 0,
      "byteOffset": 24,
      "componentType": 5125,
      "count": 12,
      "type": "SCALAR"
    },
    {
      "bufferView": 2,
      "byteOffset": 336,
      "componentType": 5126,
      "count": 4,
      "max": [
        59.5583610534668,
        12.836150169372559,
        -72.4693374633789
      ],
      "min": [
        37.72690963745117,
        12.836150169372559,
        -205.22132873535156
      ],
      "type": "VEC3"
    },
    {
      "bufferView": 2,
      "byteOffset": 384,
      "componentType": 5126,
      "count": 4,
      "max": [
        0.0,
        -1.0,
        -0.0
      ],
      "min": [
        0.0,
        -1.0,
        -0.0
      ],
      "type": "VEC3"
    },
    {
      "bufferView": 1,
      "byteOffset": 112,
      "componentType": 5126,
      "count": 4,
      "max": [
        0.7019299864768982,
        0.22662000358104706
      ],
      "min": [
        0.6662999987602234,
        0.009940000250935555
      ],
      "type": "VEC2"
    },
    {
      "bufferView": 0,
      "byteOffset": 72,
      "componentType": 5125,
      "count": 6,
      "type": "SCALAR"
    },
    {
      "bufferView": 2,
      "byteOffset": 432,
      "componentType": 5126,
      "count": 6,
      "max": [
        97.10997772216797,
        24.666309356689453,
        -12.371009826660156
      ],
      "min": [
        11.512689590454102,
        1.2568299770355225,
        -136.52313232421875
      ],
      "type": "VEC3"
    },
    {
      "bufferView": 2,
      "byteOffset": 504,
      "componentType": 5126,
      "count": 6,
      "max": [
        0.19756895303726196,
        -0.9620049595832825,
        0.18844901025295258
      ],
      "min": [
        -0.2215605080127716,
        -0.9740822315216064,
        -0.04555010423064232
      ],
      "type": "VEC3"
    },
    {
      "bufferView": 1,
      "byteOffset": 144,
      "componentType": 5126,
      "count": 6,
      "max": [
        0.5909000039100647,
        0.4425100088119507
      ],
      "min": [
        0.4507000148296356,
        0.23615999519824982
      ],
      "type": "VEC2"
    },
    {
      "bufferView": 0,
      "byteOffset": 96,
      "componentType": 5125,
      "count": 6,
      "type": "SCALAR"
    },
    {
      "bufferView": 2,
      "byteOffset": 576,
      "componentType": 5126,
      "count": 12,
      "max": [
        29.9183406829834,
        -18.599910736083984,
        -98.90339660644531
      ],
      "min": [
        -29.9183406829834,
        -31.189289093017578,
        -147.184326171875
      ],
      "type": "VEC3"
    },
    {
      "bufferView": 2,
      "byteOffset": 720,
      "componentType": 5126,
      "count": 12,
      "max": [
        0.0,
        -0.9299172759056091,
        0.36776888370513916
      ],
      "min": [
        0.0,
        -0.992152988910675,
        0.12503036856651306
      ],
      "type": "VEC3"
    },
    {
      "bufferView": 1,
      "byteOffset": 192,
      "componentType": 5126,
      "count": 12,
      "max": [
        0.7084800004959106,
        0.32861998677253723
      ],
      "min": [
        0.6107800006866455,
        0.24650000035762787
      ],
      "type": "VEC2"
    },
    {
      "bufferView": 0,
      "byteOffset": 120,
      "componentType": 5125,
      "count": 24,
      "type": "SCALAR"
    },
    {
      "bufferView": 2,
      "byteOffset": 864,
      "componentType": 5126,
      "count": 8,
      "max": [
        29.9183406829834,
        11.765819549560547,
        -111.19184875488281
      ],
      "min": [
        -29.9183406829834,
        -6.106040000915527,
        -220.32472229003906
      ],
      "type": "VEC3"
    },
    {
      "bufferView": 2,
      "byteOffset": 960,
      "componentType": 5126,
      "count": 8,
      "max": [
        0.15070055425167084,
        -0.9813436269760132,
        -0.11939044296741486
      ],
      "min": [
        -0.15070055425167084,
        -0.9813436269760132,
        -0.11939044296741486
      ],
      "type": "VEC3"
    },
    {
      "bufferView": 1,
      "byteOffset": 288,
      "componentType": 5126,
      "count": 8,
      "max": [
        0.5560100078582764,
        0.6434900164604187
      ],
      "min": [
        0.4507000148296356,
        0.4623900055885315
      ],
      "type": "VEC2"
    },
    {
      "bufferView": 0,
      "byteOffset": 216,
      "componentType": 5125,
      "count": 12,
      "type": "SCALAR"
    },
    {
      "bufferView": 2,
      "byteOffset": 1056,
      "componentType": 5126,
      "count": 8,
      "max": [
        -96.94840240478516,
        12.129240036010742,
        -22.65715980529785
      ],
      "min": [
        -135.42835998535156,
        -4.604450225830078,
        -85.84776306152344
      ],
      "type": "VEC3"
    },
    {
      "bufferView": 2,
      "byteOffset": 1152,
      "componentType": 5126,
      "count": 8,
      "max": [
        0.1532595306634903,
        -0.8752073645591736,
        0.4588286280632019
      ],
      "min": [
        0.01257001981139183,
        -0.9992115497589111,
        0.037660058587789536
      ],
      "type": "VEC3"
    },
    {
      "bufferView": 1,
      "byteOffset": 352,
      "componentType": 5126,
      "count": 8,
      "max": [
        0.74795001745224,
        0.5620499849319458
      ],
      "min": [
        0.6989499926567078,
        0.43773001432418823
      ],
      "type": "VEC2"
    },
    {
      "bufferView": 0,
      "byteOffset": 264,
      "componentType": 5125,
      "count": 12,
      "type": "SCALAR"
    },
    {
      "bufferView": 2,
      "byteOffset": 1248,
      "componentType": 5126,
      "count": 8,
      "max": [
        29.9183406829834,
        11.765819549560547,
        -188.9080047607422
      ],
      "min": [
        -29.9183406829834,
        -6.106040000915527,
        -298.0408630371094
      ],
      "type": "VEC3"
    },
    {
      "bufferView": 2,
      "byteOffset": 1344,
      "componentType": 5126,
      "count": 8,
      "max": [
        0.15070055425167084,
        -0.9813436269760132,
        -0.11939044296741486
      ],
      "min": [
        -0.15070055425167084,
        -0.9813436269760132,
        -0.11939044296741486
      ],
      "type": "VEC3"
    },
    {
      "bufferView": 1,
      "byteOffset": 416,
      "componentType": 5126,
      "count": 8,
      "max": [
        0.6812000274658203,
        0.6434900164604187
      ],
      "min": [
        0.5758900046348572,
        0.4623900055885315
      ],
      "type": "VEC2"
    },
    {
      "bufferView": 0,
      "byteOffset": 312,
      "componentType": 5125,
      "count": 12,
      "type": "SCALAR"
    },
    {
      "bufferView": 2,
      "byteOffset": 1440,
      "componentType": 5126,
      "count": 12,
      "max": [
        29.9183406829834,
        -18.599910736083984,
        -66.4184799194336
      ],
      "min": [
        -29.9183406829834,
        -31.189289093017578,
        -114.69941711425781
      ],
      "type": "VEC3"
    },
    {
      "bufferView": 2,
      "byteOffset": 1584,
      "componentType": 5126,
      "count": 12,
      "max": [
        0.0,
        -0.9299172759056091,
        0.36776888370513916
      ],
      "min": [
        0.0,
        -0.992152988910675,
        0.12503036856651306
      ],
      "type": "VEC3"
    },
    {
      "bufferView": 1,
      "byteOffset": 480,
      "componentType": 5126,
      "count": 12,
      "max": [
        0.7084500193595886,
        0.4305900037288666
      ],
      "min": [
        0.6107800006866455,
        0.34850001335144043
      ],
      "type": "VEC2"
    },
    {
      "bufferView": 0,
      "byteOffset": 360,
      "componentType": 5125,
      "count": 24,
      "type": "SCALAR"
    },
    {
      "bufferView": 2,
      "byteOffset": 1728,
      "componentType": 5126,
      "count": 28,
      "max": [
        -10.901700019836426,
        284.2591552734375,
        311.30096435546875
      ],
      "min": [
        -168.01182556152344,
        -0.31602001190185547,
        -122.97923278808594
      ],
      "type": "VEC3"
    },
    {
      "bufferView": 2,
      "byteOffset": 2064,
      "componentType": 5126,
      "count": 28,
      "max": [
        -0.049150001257658005,
        0.35137102007865906,
        0.45402073860168457
      ],
      "min": [
        -0.9160565733909607,
        -0.9981099963188171,
        -0.01727992668747902
      ],
      "type": "VEC3"
    },
    {
      "bufferView": 1,
      "byteOffset": 576,
      "componentType": 5126,
      "count": 28,
      "max": [
        0.4308199882507324,
        0.9900599718093872
      ],
      "min": [
        0.230320006608963,
        0.009940000250935555
      ],
      "type": "VEC2"
    },
    {
      "bufferView": 0,
      "byteOffset": 456,
      "componentType": 5125,
      "count": 42,
      "type": "SCALAR"
    },
    {
      "bufferView": 2,
      "byteOffset": 2400,
      "componentType": 5126,
      "count": 4,
      "max": [
        -37.72690963745117,
        12.836150169372559,
        -72.4693374633789
      ],
      "min": [
        -59.5583610534668,
        12.836150169372559,
        -205.22132873535156
      ],
      "type": "VEC3"
    },
    {
      "bufferView": 2,
      "byteOffset": 2448,
      "componentType": 5126,
      "count": 4,
      "max": [
        0.0,
        -1.0,
        0.0
      ],
      "min": [
        0.0,
        -1.0,
        0.0
      ],
      "type": "VEC3"
    },
    {
      "bufferView": 1,
      "byteOffset": 800,
      "componentType": 5126,
      "count": 4,
      "max": [
        0.6464200019836426,
        0.22662000358104706
      ],
      "min": [
        0.6107800006866455,
        0.009940000250935555
      ],
      "type": "VEC2"
    },
    {
      "bufferView": 0,
      "byteOffset": 624,
      "componentType": 5125,
      "count": 6,
      "type": "SCALAR"
    },
    {
      "bufferView": 2,
      "byteOffset": 2496,
      "componentType": 5126,
      "count": 28,
      "max": [
        168.01182556152344,
        284.2591552734375,
        311.30096435546875
      ],
      "min": [
        10.901700019836426,
        -0.31602001190185547,
        -122.97923278808594
      ],
      "type": "VEC3"
    },
    {
      "bufferView": 2,
      "byteOffset": 2832,
      "componentType": 5126,
      "count": 28,
      "max": [
        0.9160565733909607,
        0.35137102007865906,
        0.45402073860168457
      ],
      "min": [
        0.049150001257658005,
        -0.9981099963188171,
        -0.01727992668747902
      ],
      "type": "VEC3"
    },
    {
      "bufferView": 1,
      "byteOffset": 832,
      "componentType": 5126,
      "count": 28,
      "max": [
        0.210439994931221,
        0.9900599718093872
      ],
      "min": [
        0.009940000250935555,
        0.009940000250935555
      ],
      "type": "VEC2"
    },
    {
      "bufferView": 0,
      "byteOffset": 648,
      "componentType": 5125,
      "count": 42,
      "type": "SCALAR"
    }
  ],
  "asset": {
    "extras": {
      "author": "yuson (https://sketchfab.com/yusonchen)",
      "license": "CC-BY-4.0 (http://creativecommons.org/licenses/by/4.0/)",
      "source": "https://sketchfab.com/3d-models/necklace-95f76beed697414c80e0771010c6e194",
      "title": "necklace"
    },
    "generator": "Sketchfab-12.66.0",
    "version": "2.0"
  },
  "bufferViews": [
    {
      "buffer": 0,
      "byteLength": 816,
      "name": "floatBufferViews",
      "target": 34963
    },
    {
      "buffer": 0,
      "byteLength": 1056,
      "byteOffset": 816,
      "byteStride": 8,
      "name": "floatBufferViews",
      "target": 34962
    },
    {
      "buffer": 0,
      "byteLength": 3168,
      "byteOffset": 1872,
      "byteStride": 12,
      "name": "floatBufferViews",
      "target": 34962
    }
  ],
  "buffers": [
    {
      "byteLength": 5040,
      "uri": "scene.bin"
    }
  ],
  "extensionsRequired": [
    "KHR_materials_pbrSpecularGlossiness"
  ],
  "extensionsUsed": [
    "KHR_materials_pbrSpecularGlossiness"
  ],
  "images": [
    {
      "uri": "textures/necklace_diffuse.png"
    }
  ],
  "materials": [
    {
      "alphaMode": "BLEND",
      "doubleSided": true,
      "extensions": {
        "KHR_materials_pbrSpecularGlossiness": {
          "diffuseFactor": [
            1.0,
            1.0,
            1.0,
            1.0
          ],
          "diffuseTexture": {
            "index": 0
          },
          "glossinessFactor": 0.0,
          "specularFactor": [
            0.0,
            0.0,
            0.0
          ]
        }
      },
      "name": "necklace"
    }
  ],
  "meshes": [
    {
      "name": "triangle_R_0",
      "primitives": [
        {
          "attributes": {
            "NORMAL": 1,
            "POSITION": 0,
            "TEXCOORD_0": 2
          },
          "indices": 3,
          "material": 0,
          "mode": 4
        }
      ]
    },
    {
      "name": "obj_L_0",
      "primitives": [
        {
          "attributes": {
            "NORMAL": 5,
            "POSITION": 4,
            "TEXCOORD_0": 6
          },
          "indices": 7,
          "material": 0,
          "mode": 4
        }
      ]
    },
    {
      "name": "triangle_L.002_0",
      "primitives": [
        {
          "attributes": {
            "NORMAL": 9,
            "POSITION": 8,
            "TEXCOORD_0": 10
          },
          "indices": 11,
          "material": 0,
          "mode": 4
        }
      ]
    },
    {
      "name": "triangle_L_0",
      "primitives": [
        {
          "attributes": {
            "NORMAL": 13,
            "POSITION": 12,
            "TEXCOORD_0": 14
          },
          "indices": 15,
          "material": 0,
          "mode": 4
        }
      ]
    },
    {
      "name": "sector_down_0",
      "primitives": [
        {
          "attributes": {
            "NORMAL": 17,
            "POSITION": 16,
            "TEXCOORD_0": 18
          },
          "indices": 19,
          "material": 0,
          "mode": 4
        }
      ]
    },
    {
      "name": "feather_up_0",
      "primitives": [
        {
          "attributes": {
            "NORMAL": 21,
            "POSITION": 20,
            "TEXCOORD_0": 22
          },
          "indices": 23,
          "material": 0,
          "mode": 4
        }
      ]
    },
    {
      "name": "tooth_R_0",
      "primitives": [
        {
          "attributes": {
            "NORMAL": 25,
            "POSITION": 24,
            "TEXCOORD_0": 26
          },
          "indices": 27,
          "material": 0,
          "mode": 4
        }
      ]
    },
    {
      "name": "feather_down_0",
      "primitives": [
        {
          "attributes": {
            "NORMAL": 29,
            "POSITION": 28,
            "TEXCOORD_0": 30
          },
          "indices": 31,
          "material": 0,
          "mode": 4
        }
      ]
    },
    {
      "name": "sector_up_0",
      "primitives": [
        {
          "attributes": {
            "NORMAL": 33,
            "POSITION": 32,
            "TEXCOORD_0": 34
          },
          "indices": 35,
          "material": 0,
          "mode": 4
        }
      ]
    },
    {
      "name": "necklace_R_0",
      "primitives": [
        {
          "attributes": {
            "NORMAL": 37,
            "POSITION": 36,
            "TEXCOORD_0": 38
          },
          "indices": 39,
          "material": 0,
          "mode": 4
        }
      ]
    },
    {
      "name": "obj_R_0",
      "primitives": [
        {
          "attributes": {
            "NORMAL": 41,
            "POSITION": 40,
            "TEXCOORD_0": 42
          },
          "indices": 43,
          "material": 0,
          "mode": 4
        }
      ]
    },
    {
      "name": "necklace_L_0",
      "primitives": [
        {
          "attributes": {
            "NORMAL": 45,
            "POSITION": 44,
            "TEXCOORD_0": 46
          },
          "indices": 47,
          "material": 0,
          "mode": 4
        }
      ]
    }
  ],
  "nodes": [
    {
      "children": [
        1
      ],
      "matrix": [
        1.0,
        0.0,
        0.0,
        0.0,
        0.0,
        2.220446049250313e-16,
        -1.0,
        0.0,
        0.0,
        1.0,
        2.220446049250313e-16,
        0.0,
        0.0,
        0.0,
        0.0,
        1.0
      ],
      "name": "Sketchfab_model"
    },
    {
      "children": [
        2,
        4,
        6,
        8,
        10,
        12,
        14,
        16,
        18,
        20,
        22,
        24
      ],
      "name": "Root"
    },
    {
      "children": [
        3
      ],
      "matrix": [
        1.0,
        0.0,
        0.0,
        0.0,
        0.0,
        1.0,
        0.0,
        0.0,
        0.0,
        0.0,
        1.0,
        0.0,
        0.0,
        -2.05394,
        0.0,
        1.0
      ],
      "name": "triangle_R"
    },
    {
      "mesh": 0,
      "name": "triangle_R_0"
    },
    {
      "children": [
        5
      ],
      "matrix": [
        1.0,
        0.0,
        0.0,
        0.0,
        0.0,
        1.0,
        0.0,
        0.0,
        0.0,
        0.0,
        1.0,
        0.0,
        0.0,
        0.08729000000000003,
        0.0,
        1.0
      ],
      "name": "obj_L"
    },
    {
      "mesh": 1,
      "name": "obj_L_0"
    },
    {
      "children": [
        7
      ],
      "matrix": [
        1.0,
        0.0,
        0.0,
        0.0,
        0.0,
        1.0,
        0.0,
        0.0,
        0.0,
        0.0,
        1.0,
        0.0,
        0.0,
        -2.05394,
        0.0,
        1.0
      ],
      "name": "triangle_L.002"
    },
    {
      "mesh": 2,
      "name": "triangle_L.002_0"
    },
    {
      "children": [
        9
      ],
      "matrix": [
        1.0,
        0.0,
        0.0,
        0.0,
        0.0,
        1.0,
        0.0,
        0.0,
        0.0,
        0.0,
        1.0,
        0.0,
        0.0,
        -2.05394,
        0.0,
        1.0
      ],
      "name": "triangle_L"
    },
    {
      "mesh": 3,
      "name": "triangle_L_0"
    },
    {
      "children": [
        11
      ],
      "matrix": [
        1.0,
        0.0,
        0.0,
        0.0,
        0.0,
        1.0,
        0.0,
        0.0,
        0.0,
        0.0,
        1.0,
        0.0,
        0.0,
        4.40407,
        0.0,
        1.0
      ],
      "name": "sector_down"
    },
    {
      "mesh": 4,
      "name": "sector_down_0"
    },
    {
      "children": [
        13
      ],
      "matrix": [
        1.0,
        0.0,
        0.0,
        0.0,
        0.0,
        1.0,
        0.0,
        0.0,
        0.0,
        0.0,
        1.0,
        0.0,
        0.0,
        4.40407,
        0.0,
        1.0
      ],
      "name": "feather_up"
    },
    {
      "mesh": 5,
      "name": "feather_up_0"
    },
    {
      "children": [
        15
      ],
      "matrix": [
        1.0,
        0.0,
        0.0,
        0.0,
        0.0,
        1.0,
        0.0,
        0.0,
        0.0,
        0.0,
        1.0,
        0.0,
        0.0,
        0.08729000000000003,
        0.0,
        1.0
      ],
      "name": "tooth_R"
    },
    {
      "mesh": 6,
      "name": "tooth_R_0"
    },
    {
      "children": [
        17
      ],
      "matrix": [
        1.0,
        0.0,
        0.0,
        0.0,
        0.0,
        1.0,
        0.0,
        0.0,
        0.0,
        0.0,
        1.0,
        0.0,
        0.0,
        4.40407,
        0.0,
        1.0
      ],
      "name": "feather_down"
    },
    {
      "mesh": 7,
      "name": "feather_down_0"
    },
    {
      "children": [
        19
      ],
      "matrix": [
        1.0,
        0.0,
        0.0,
        0.0,
        0.0,
        1.0,
        0.0,
        0.0,
        0.0,
        0.0,
        1.0,
        0.0,
        0.0,
        4.40407,
        0.0,
        1.0
      ],
      "name": "sector_up"
    },
    {
      "mesh": 8,
      "name": "sector_up_0"
    },
    {
      "children": [
        21
      ],
      "matrix": [
        1.0,
        0.0,
        0.0,
        0.0,
        0.0,
        1.0,
        0.0,
        0.0,
        0.0,
        0.0,
        1.0,
        0.0,
        0.0,
        -2.05394,
        0.0,
        1.0
      ],
      "name": "necklace_R"
    },
    {
      "mesh": 9,
      "name": "necklace_R_0"
    },
    {
      "children": [
        23
      ],
      "matrix": [
        1.0,
        0.0,
        0.0,
        0.0,
        0.0,
        1.0,
        0.0,
        0.0,
        0.0,
        0.0,
        1.0,
        0.0,
        0.0,
        -2.05394,
        0.0,
        1.0
      ],
      "name": "obj_R"
    },
    {
      "mesh": 10,
      "name": "obj_R_0"
    },
    {
      "children": [
        25
      ],
      "matrix": [
        1.0,
        0.0,
        0.0,
        0.0,
        0.0,
        1.0,
        0.0,
        0.0,
        0.0,
        0.0,
        1.0,
        0.0,
        0.0,
        -2.05394,
        0.0,
        1.0
      ],
      "name": "necklace_L"
    },
    {
      "mesh": 11,
      "name": "necklace_L_0"
    }
  ],
  "samplers": [
    {
      "magFilter": 9729,
      "minFilter": 9987,
      "wrapS": 10497,
      "wrapT": 10497
    }
  ],
  "scene": 0,
  "scenes": [
    {
      "name": "Sketchfab_Scene",
      "nodes": [
        0
      ]
    }
  ],
  "textures": [
    {
      "sampler": 0,
      "source": 0
    }
  ]
}
